<svg width="18" height="19" viewBox="0 0 18 19" fill="none" xmlns="http://www.w3.org/2000/svg">
<path d="M10.9688 2.28125V1.09375C10.9688 0.936278 11.0313 0.785255 11.1427 0.673905C11.254 0.562556 11.405 0.5 11.5625 0.5C11.72 0.5 11.871 0.562556 11.9824 0.673905C12.0937 0.785255 12.1563 0.936278 12.1563 1.09375V2.28125C12.1563 2.43872 12.0937 2.58975 11.9824 2.70109C11.871 2.81244 11.72 2.875 11.5625 2.875C11.405 2.875 11.254 2.81244 11.1427 2.70109C11.0313 2.58975 10.9688 2.43872 10.9688 2.28125ZM13.628 3.54297C13.7214 3.59914 13.8286 3.62818 13.9375 3.62684C14.0394 3.627 14.1396 3.60093 14.2285 3.55115C14.3174 3.50137 14.392 3.42954 14.4452 3.34258L15.0389 2.36957C15.0802 2.30299 15.108 2.22888 15.1205 2.15153C15.133 2.07418 15.1301 1.99511 15.112 1.91889C15.0938 1.84266 15.0608 1.77078 15.0147 1.7074C14.9686 1.64401 14.9104 1.59037 14.8435 1.54958C14.7766 1.50878 14.7023 1.48163 14.6249 1.46969C14.5474 1.45775 14.4684 1.46126 14.3923 1.48001C14.3162 1.49877 14.2446 1.5324 14.1816 1.57896C14.1185 1.62553 14.0654 1.68411 14.0251 1.75133L13.4313 2.72359C13.3902 2.79023 13.3626 2.86435 13.3502 2.94169C13.3378 3.01903 13.3408 3.09806 13.3591 3.17422C13.3774 3.25038 13.4106 3.32217 13.4567 3.38546C13.5029 3.44875 13.5611 3.50228 13.628 3.54297ZM17.149 4.47738C17.125 4.40316 17.0867 4.33437 17.0362 4.27495C16.9857 4.21553 16.924 4.16665 16.8546 4.13108C16.7852 4.09552 16.7095 4.07398 16.6317 4.06769C16.554 4.06139 16.4758 4.07048 16.4016 4.09441L15.2883 4.45437C15.1533 4.49753 15.0382 4.58753 14.9638 4.70812C14.8894 4.82871 14.8606 4.97194 14.8825 5.11193C14.9045 5.25192 14.9758 5.37944 15.0835 5.47146C15.1913 5.56347 15.3284 5.61391 15.4701 5.61367C15.5321 5.61344 15.5937 5.60367 15.6527 5.58473L16.766 5.22477C16.8405 5.20086 16.9096 5.16245 16.9693 5.11174C17.029 5.06103 17.078 4.99901 17.1136 4.92927C17.1492 4.85953 17.1706 4.78344 17.1767 4.70538C17.1828 4.62731 17.1733 4.54882 17.149 4.47441V4.47738ZM14.9224 7.44168C15.5789 8.57086 15.8432 9.88555 15.6742 11.1807C15.5052 12.4759 14.9123 13.6787 13.988 14.6016C13.6673 15.7223 13.0238 16.7238 12.1377 17.4813C11.2516 18.2388 10.1622 18.7186 9.00518 18.8611C7.8482 19.0036 6.67488 18.8023 5.63152 18.2824C4.58816 17.7625 3.72092 16.947 3.13794 15.9375L0.54028 11.4376C0.381676 11.1625 0.293415 10.8525 0.283323 10.5351C0.273232 10.2177 0.341622 9.90277 0.482429 9.61815C0.623235 9.33353 0.832106 9.08805 1.09052 8.9035C1.34892 8.71894 1.64889 8.60101 1.9638 8.56016L1.66692 8.04508C1.51078 7.77461 1.42261 7.47029 1.40999 7.15825C1.39738 6.8462 1.46068 6.53576 1.59448 6.25357C1.72827 5.97138 1.92856 5.72588 2.17814 5.53815C2.42771 5.35042 2.71913 5.22607 3.02735 5.17578C2.87275 4.75011 2.8728 4.28362 3.02748 3.85797C3.18216 3.43233 3.48162 3.07464 3.87344 2.84754C4.23273 2.64086 4.64892 2.55512 5.06064 2.60296C5.47236 2.6508 5.8578 2.82969 6.16012 3.11324C6.34529 2.84595 6.59501 2.62978 6.88607 2.48481C7.17714 2.33984 7.50012 2.27078 7.82502 2.28403C8.14992 2.29729 8.4662 2.39243 8.74449 2.56062C9.02278 2.72881 9.25406 2.9646 9.41684 3.24609L10.3075 4.7891C10.5003 4.5366 10.7525 4.33562 11.0417 4.20399C11.3308 4.07237 11.648 4.01418 11.9651 4.0346C12.2821 4.05501 12.5892 4.15339 12.8591 4.32101C13.129 4.48862 13.3534 4.72029 13.5122 4.99543L14.9224 7.44168ZM7.10344 4.58203L7.54356 5.34426C7.69051 5.47847 7.81571 5.63471 7.91465 5.80738L8.80528 7.34742C9.098 6.96725 9.52095 6.70872 9.99278 6.62156L8.38891 3.83984C8.29049 3.66938 8.12838 3.545 7.93826 3.49406C7.74813 3.44312 7.54555 3.46979 7.37508 3.5682C7.20462 3.66663 7.08024 3.82873 7.0293 4.01886C6.97836 4.20899 7.00503 4.41157 7.10344 4.58203ZM4.19555 4.89004L4.63567 5.65301L4.65942 5.67453C4.80341 5.46605 4.98716 5.28805 5.20011 5.15075C5.41306 5.01345 5.65103 4.91956 5.90036 4.87445L5.48102 4.14785C5.40764 4.02071 5.29821 3.91819 5.16656 3.85325C5.03491 3.78831 4.88696 3.76387 4.74142 3.78301C4.59588 3.80216 4.45928 3.86403 4.34891 3.96081C4.23853 4.05759 4.15934 4.18493 4.12133 4.32672C4.09577 4.42085 4.08917 4.51912 4.10191 4.61583C4.11465 4.71253 4.14648 4.80574 4.19555 4.89004ZM12.868 14.1986C13.031 13.5961 13.073 12.9673 12.9915 12.3486C12.9099 11.7298 12.7065 11.1334 12.393 10.5938L10.9829 8.15121C10.887 7.98679 10.7315 7.8655 10.5487 7.81242C10.3659 7.75933 10.1697 7.77852 10.0007 7.866C9.83161 7.95348 9.70262 8.10258 9.64038 8.28246C9.57813 8.46235 9.58738 8.65928 9.66622 8.83254L10.5138 10.2969C10.5925 10.4334 10.6138 10.5956 10.573 10.7478C10.5321 10.9 10.4325 11.0297 10.296 11.1085C10.1595 11.1872 9.99726 11.2085 9.84506 11.1676C9.69286 11.1268 9.56312 11.0271 9.48438 10.8906L6.88672 6.40262C6.78481 6.24124 6.62465 6.12533 6.43951 6.07896C6.25436 6.0326 6.05847 6.05933 5.89253 6.15363C5.72659 6.24792 5.60335 6.40251 5.54842 6.5853C5.49348 6.76808 5.51108 6.96501 5.59755 7.13516L7.42555 10.2969C7.46701 10.3645 7.4945 10.4397 7.50642 10.5181C7.51833 10.5964 7.51443 10.6764 7.49493 10.7533C7.47543 10.8301 7.44074 10.9023 7.3929 10.9655C7.34506 11.0288 7.28504 11.0818 7.21639 11.1214C7.14773 11.1611 7.07182 11.1866 6.99315 11.1964C6.91447 11.2063 6.83462 11.2003 6.75831 11.1788C6.682 11.1573 6.61076 11.1207 6.54882 11.0712C6.48687 11.0217 6.43546 10.9603 6.39762 10.8906L3.98032 6.70914C3.93194 6.62405 3.86721 6.54937 3.78985 6.4894C3.7125 6.42943 3.62404 6.38536 3.52958 6.35971C3.43512 6.33407 3.33652 6.32736 3.23946 6.33997C3.1424 6.35259 3.04879 6.38428 2.96402 6.43322C2.87926 6.48216 2.80501 6.54739 2.74555 6.62514C2.6861 6.70289 2.64261 6.79164 2.61759 6.88627C2.59257 6.9809 2.58652 7.07954 2.59978 7.17651C2.61304 7.27349 2.64535 7.36689 2.69485 7.45133L5.36672 12.0796C5.40571 12.1472 5.43101 12.2217 5.44118 12.299C5.45135 12.3764 5.4462 12.4549 5.426 12.5303C5.40581 12.6056 5.37098 12.6762 5.32349 12.7381C5.27601 12.7999 5.21681 12.8518 5.14926 12.8908C5.08172 12.9298 5.00716 12.9551 4.92984 12.9653C4.85252 12.9754 4.77395 12.9703 4.69862 12.9501C4.62329 12.9299 4.55268 12.8951 4.49081 12.8476C4.42895 12.8001 4.37704 12.7409 4.33805 12.6734L2.85368 10.1024C2.75456 9.93335 2.59259 9.81034 2.40311 9.76025C2.21363 9.71015 2.01203 9.73703 1.8423 9.83503C1.67257 9.93303 1.5485 10.0942 1.49715 10.2833C1.4458 10.4725 1.47134 10.6742 1.56821 10.8446L4.16587 15.3445C4.63557 16.1582 5.33605 16.8144 6.1787 17.2299C7.02135 17.6455 7.96832 17.8018 8.89983 17.6792C9.83135 17.5565 10.7056 17.1604 11.4119 16.5408C12.1182 15.9212 12.625 15.1061 12.868 14.1986ZM13.8937 8.03246L12.4836 5.58992C12.3844 5.42085 12.2225 5.29784 12.033 5.24775C11.8435 5.19765 11.6419 5.22453 11.4722 5.32253C11.3025 5.42053 11.1784 5.58168 11.127 5.77082C11.0757 5.95996 11.1012 6.16173 11.1981 6.33211L11.6367 7.09285C11.7836 7.22767 11.9088 7.38439 12.0078 7.55746L13.418 10C13.8142 10.6848 14.0698 11.4418 14.1698 12.2266C14.4497 11.5534 14.5703 10.8247 14.5225 10.0972C14.4746 9.36975 14.2594 8.66315 13.8937 8.03246Z" fill="white"/>
</svg>
